<svg width="375" height="812" viewBox="0 0 375 812" fill="none" xmlns="http://www.w3.org/2000/svg">
  <!-- 背景 -->
  <rect width="375" height="812" fill="#FFE4E6"/>
  
  <!-- 状态栏 -->
  <rect width="375" height="44" fill="#FFFFFF"/>
  <text x="20" y="32" font-family="SF Pro Display" font-size="14" font-weight="600" fill="#343A40">9:41</text>
  <circle cx="331" cy="22" r="6" fill="#28A745"/>
  <rect x="340" y="18" width="24" height="12" rx="2" fill="none" stroke="#343A40" stroke-width="1"/>
  <rect x="342" y="20" width="20" height="8" rx="1" fill="#28A745"/>
  
  <!-- 顶部导航 -->
  <rect y="44" width="375" height="60" fill="#FFFFFF"/>
  <text x="187.5" y="85" text-anchor="middle" font-family="SF Pro Display" font-size="18" font-weight="700" fill="#343A40">我的成就</text>
  <line x1="0" y1="104" x2="375" y2="104" stroke="#F8F9FA" stroke-width="1"/>
  
  <!-- Tab 切换 -->
  <rect y="104" width="375" height="48" fill="#FFFFFF"/>
  <rect x="16" y="116" width="170" height="32" rx="16" fill="#FF69B4"/>
  <text x="101" y="137" text-anchor="middle" font-family="SF Pro Display" font-size="14" font-weight="600" fill="#FFFFFF">已完成</text>
  <rect x="189" y="116" width="170" height="32" rx="16" fill="none"/>
  <text x="274" y="137" text-anchor="middle" font-family="SF Pro Display" font-size="14" font-weight="400" fill="#6C757D">想完成</text>
  
  <!-- 成就卡片网格 -->
  <!-- 卡片1 -->
  <g transform="translate(16, 168)">
    <rect width="164" height="120" rx="12" fill="#FFFFFF" filter="drop-shadow(0 2px 8px rgba(255, 105, 180, 0.15))"/>
    <rect x="2" y="2" width="160" height="116" rx="10" fill="none" stroke="url(#gradient1)" stroke-width="2"/>
    <circle cx="82" cy="35" r="16" fill="#FFE4E6"/>
    <text x="82" y="39" text-anchor="middle" font-family="SF Pro Display" font-size="16">💕</text>
    <text x="82" y="65" text-anchor="middle" font-family="SF Pro Display" font-size="12" font-weight="600" fill="#343A40">初次约会</text>
    <text x="82" y="80" text-anchor="middle" font-family="SF Pro Display" font-size="10" fill="#6C757D">第一次正式约会</text>
    <rect x="136" y="8" width="20" height="16" rx="8" fill="#FFD700"/>
    <text x="146" y="19" text-anchor="middle" font-family="SF Pro Display" font-size="8" fill="#FFFFFF">金</text>
    <rect x="8" y="104" width="148" height="2" rx="1" fill="#28A745"/>
  </g>
  
  <!-- 卡片2 -->
  <g transform="translate(195, 168)">
    <rect width="164" height="120" rx="12" fill="#FFFFFF" filter="drop-shadow(0 2px 8px rgba(255, 105, 180, 0.15))"/>
    <rect x="2" y="2" width="160" height="116" rx="10" fill="none" stroke="url(#gradient1)" stroke-width="2"/>
    <circle cx="82" cy="35" r="16" fill="#FFE4E6"/>
    <text x="82" y="39" text-anchor="middle" font-family="SF Pro Display" font-size="16">🎬</text>
    <text x="82" y="65" text-anchor="middle" font-family="SF Pro Display" font-size="12" font-weight="600" fill="#343A40">看电影</text>
    <text x="82" y="80" text-anchor="middle" font-family="SF Pro Display" font-size="10" fill="#6C757D">一起看部好电影</text>
    <rect x="136" y="8" width="20" height="16" rx="8" fill="#C0C0C0"/>
    <text x="146" y="19" text-anchor="middle" font-family="SF Pro Display" font-size="8" fill="#343A40">银</text>
    <rect x="8" y="104" width="100" height="2" rx="1" fill="#FFC107"/>
    <rect x="108" y="104" width="48" height="2" rx="1" fill="#F8F9FA"/>
  </g>
  
  <!-- 卡片3 -->
  <g transform="translate(16, 304)">
    <rect width="164" height="120" rx="12" fill="#FFFFFF" filter="drop-shadow(0 2px 8px rgba(255, 105, 180, 0.15))"/>
    <rect x="2" y="2" width="160" height="116" rx="10" fill="none" stroke="url(#gradient1)" stroke-width="2"/>
    <circle cx="82" cy="35" r="16" fill="#FFE4E6"/>
    <text x="82" y="39" text-anchor="middle" font-family="SF Pro Display" font-size="16">🍰</text>
    <text x="82" y="65" text-anchor="middle" font-family="SF Pro Display" font-size="12" font-weight="600" fill="#343A40">生日惊喜</text>
    <text x="82" y="80" text-anchor="middle" font-family="SF Pro Display" font-size="10" fill="#6C757D">准备生日惊喜</text>
    <rect x="136" y="8" width="20" height="16" rx="8" fill="#B9F2FF"/>
    <text x="146" y="19" text-anchor="middle" font-family="SF Pro Display" font-size="8" fill="#343A40">钻</text>
    <rect x="8" y="104" width="148" height="2" rx="1" fill="#28A745"/>
  </g>
  
  <!-- 卡片4 -->
  <g transform="translate(195, 304)">
    <rect width="164" height="120" rx="12" fill="#FFFFFF" filter="drop-shadow(0 2px 8px rgba(255, 105, 180, 0.15))"/>
    <rect x="2" y="2" width="160" height="116" rx="10" fill="none" stroke="url(#gradient1)" stroke-width="2"/>
    <circle cx="82" cy="35" r="16" fill="#FFE4E6"/>
    <text x="82" y="39" text-anchor="middle" font-family="SF Pro Display" font-size="16">🌅</text>
    <text x="82" y="65" text-anchor="middle" font-family="SF Pro Display" font-size="12" font-weight="600" fill="#343A40">看日出</text>
    <text x="82" y="80" text-anchor="middle" font-family="SF Pro Display" font-size="10" fill="#6C757D">一起看日出</text>
    <rect x="136" y="8" width="20" height="16" rx="8" fill="#CD7F32"/>
    <text x="146" y="19" text-anchor="middle" font-family="SF Pro Display" font-size="8" fill="#FFFFFF">铜</text>
    <rect x="8" y="104" width="40" height="2" rx="1" fill="#FFC107"/>
    <rect x="48" y="104" width="108" height="2" rx="1" fill="#F8F9FA"/>
  </g>
  
  <!-- 浮动添加按钮 -->
  <circle cx="331" cy="440" r="28" fill="url(#gradient2)" filter="drop-shadow(0 4px 12px rgba(255, 105, 180, 0.3))"/>
  <text x="331" y="448" text-anchor="middle" font-family="SF Pro Display" font-size="24" fill="#FFFFFF">+</text>
  
  <!-- 底部导航栏 -->
  <rect y="732" width="375" height="80" fill="#FFFFFF"/>
  <line x1="0" y1="732" x2="375" y2="732" stroke="#F8F9FA" stroke-width="1"/>
  
  <!-- Tab 1 - 成就 (选中) -->
  <g transform="translate(46.875, 748)">
    <circle cx="12" cy="12" r="12" fill="#FF69B4"/>
    <text x="12" y="17" text-anchor="middle" font-family="SF Pro Display" font-size="12" fill="#FFFFFF">🏆</text>
    <text x="12" y="44" text-anchor="middle" font-family="SF Pro Display" font-size="10" font-weight="600" fill="#FF69B4">成就</text>
  </g>
  
  <!-- Tab 2 - 发现 -->
  <g transform="translate(140.625, 748)">
    <circle cx="12" cy="12" r="12" fill="#F8F9FA"/>
    <text x="12" y="17" text-anchor="middle" font-family="SF Pro Display" font-size="12" fill="#6C757D">🔍</text>
    <text x="12" y="44" text-anchor="middle" font-family="SF Pro Display" font-size="10" fill="#6C757D">发现</text>
  </g>
  
  <!-- Tab 3 - 统计 -->
  <g transform="translate(234.375, 748)">
    <circle cx="12" cy="12" r="12" fill="#F8F9FA"/>
    <text x="12" y="17" text-anchor="middle" font-family="SF Pro Display" font-size="12" fill="#6C757D">📊</text>
    <text x="12" y="44" text-anchor="middle" font-family="SF Pro Display" font-size="10" fill="#6C757D">统计</text>
  </g>
  
  <!-- Tab 4 - 全部 -->
  <g transform="translate(328.125, 748)">
    <circle cx="12" cy="12" r="12" fill="#F8F9FA"/>
    <text x="12" y="17" text-anchor="middle" font-family="SF Pro Display" font-size="12" fill="#6C757D">🎯</text>
    <text x="12" y="44" text-anchor="middle" font-family="SF Pro Display" font-size="10" fill="#6C757D">全部</text>
  </g>
  
  <!-- 渐变定义 -->
  <defs>
    <linearGradient id="gradient1" x1="0%" y1="0%" x2="100%" y2="100%">
      <stop offset="0%" style="stop-color:#FF69B4"/>
      <stop offset="100%" style="stop-color:#FF1493"/>
    </linearGradient>
    <linearGradient id="gradient2" x1="0%" y1="0%" x2="100%" y2="100%">
      <stop offset="0%" style="stop-color:#FF69B4"/>
      <stop offset="100%" style="stop-color:#FF1493"/>
    </linearGradient>
  </defs>
</svg> 