<svg width="375" height="812" viewBox="0 0 375 812" fill="none" xmlns="http://www.w3.org/2000/svg">
  <!-- 背景 -->
  <rect width="375" height="812" fill="#FFE4E6"/>
  
  <!-- 状态栏 -->
  <rect width="375" height="44" fill="#FFFFFF"/>
  <text x="20" y="32" font-family="SF Pro Display" font-size="14" font-weight="600" fill="#343A40">9:41</text>
  <circle cx="331" cy="22" r="6" fill="#28A745"/>
  <rect x="340" y="18" width="24" height="12" rx="2" fill="none" stroke="#343A40" stroke-width="1"/>
  <rect x="342" y="20" width="20" height="8" rx="1" fill="#28A745"/>
  
  <!-- 顶部导航 -->
  <rect y="44" width="375" height="60" fill="#FFFFFF"/>
  <text x="187.5" y="85" text-anchor="middle" font-family="SF Pro Display" font-size="18" font-weight="700" fill="#343A40">发现成就</text>
  <line x1="0" y1="104" x2="375" y2="104" stroke="#F8F9FA" stroke-width="1"/>
  
  <!-- 卡片堆叠区域 -->
  <!-- 背景卡片3 (最底层) -->
  <g transform="translate(35, 180) rotate(-2)">
    <rect width="305" height="380" rx="20" fill="#FFFFFF" opacity="0.4" filter="drop-shadow(0 8px 24px rgba(255, 105, 180, 0.1))"/>
  </g>
  
  <!-- 背景卡片2 -->
  <g transform="translate(30, 175) rotate(1)">
    <rect width="315" height="390" rx="20" fill="#FFFFFF" opacity="0.7" filter="drop-shadow(0 8px 24px rgba(255, 105, 180, 0.15))"/>
  </g>
  
  <!-- 顶层卡片 (可操作) -->
  <g transform="translate(25, 170)">
    <rect width="325" height="400" rx="20" fill="#FFFFFF" filter="drop-shadow(0 12px 32px rgba(255, 105, 180, 0.2))"/>
    <rect x="4" y="4" width="317" height="392" rx="16" fill="none" stroke="url(#gradient1)" stroke-width="3"/>
    
    <!-- 成就图片区域 -->
    <rect x="25" y="30" width="275" height="180" rx="12" fill="url(#imageGradient)"/>
    <text x="162.5" y="130" text-anchor="middle" font-family="SF Pro Display" font-size="48">🌸</text>
    
    <!-- 稀有度徽章 -->
    <rect x="280" y="20" width="30" height="20" rx="10" fill="#FFD700"/>
    <text x="295" y="33" text-anchor="middle" font-family="SF Pro Display" font-size="10" font-weight="600" fill="#FFFFFF">金</text>
    
    <!-- 成就信息 -->
    <text x="162.5" y="250" text-anchor="middle" font-family="SF Pro Display" font-size="20" font-weight="700" fill="#343A40">樱花季约会</text>
    <text x="162.5" y="275" text-anchor="middle" font-family="SF Pro Display" font-size="14" fill="#6C757D">在樱花盛开的季节来一次浪漫约会</text>
    
    <!-- 成就标签 -->
    <g transform="translate(45, 300)">
      <rect width="60" height="24" rx="12" fill="#FFE4E6"/>
      <text x="30" y="16" text-anchor="middle" font-family="SF Pro Display" font-size="10" fill="#FF69B4">浪漫约会</text>
    </g>
    <g transform="translate(115, 300)">
      <rect width="45" height="24" rx="12" fill="#E8F5E8"/>
      <text x="22.5" y="16" text-anchor="middle" font-family="SF Pro Display" font-size="10" fill="#28A745">户外</text>
    </g>
    <g transform="translate(170, 300)">
      <rect width="50" height="24" rx="12" fill="#FFF3CD"/>
      <text x="25" y="16" text-anchor="middle" font-family="SF Pro Display" font-size="10" fill="#856404">🌟🌟🌟</text>
    </g>
    
    <!-- 成就详情 -->
    <g transform="translate(25, 340)">
      <text x="0" y="15" font-family="SF Pro Display" font-size="12" fill="#6C757D">💰 预算: ¥100-300</text>
      <text x="0" y="35" font-family="SF Pro Display" font-size="12" fill="#6C757D">⏰ 耗时: 2-4小时</text>
      <text x="150" y="15" font-family="SF Pro Display" font-size="12" fill="#6C757D">📍 地点: 公园/景点</text>
      <text x="150" y="35" font-family="SF Pro Display" font-size="12" fill="#6C757D">👥 完成率: 85%</text>
    </g>
  </g>
  
  <!-- 操作指示文本 -->
  <text x="187.5" y="600" text-anchor="middle" font-family="SF Pro Display" font-size="12" fill="#6C757D">左滑跳过 · 右滑收藏 · 上滑完成</text>
  
  <!-- 底部操作按钮 -->
  <g transform="translate(0, 630)">
    <!-- 跳过按钮 -->
    <circle cx="75" cy="40" r="28" fill="#F8F9FA" filter="drop-shadow(0 4px 12px rgba(0, 0, 0, 0.1))"/>
    <text x="75" y="48" text-anchor="middle" font-family="SF Pro Display" font-size="20" fill="#6C757D">✕</text>
    
    <!-- 收藏按钮 -->
    <circle cx="187.5" cy="40" r="32" fill="url(#gradient2)" filter="drop-shadow(0 4px 12px rgba(255, 105, 180, 0.3))"/>
    <text x="187.5" y="48" text-anchor="middle" font-family="SF Pro Display" font-size="24" fill="#FFFFFF">❤️</text>
    
    <!-- 完成按钮 -->
    <circle cx="300" cy="40" r="28" fill="#28A745" filter="drop-shadow(0 4px 12px rgba(40, 167, 69, 0.3))"/>
    <text x="300" y="48" text-anchor="middle" font-family="SF Pro Display" font-size="20" fill="#FFFFFF">✓</text>
  </g>
  
  <!-- 底部导航栏 -->
  <rect y="732" width="375" height="80" fill="#FFFFFF"/>
  <line x1="0" y1="732" x2="375" y2="732" stroke="#F8F9FA" stroke-width="1"/>
  
  <!-- Tab 1 - 成就 -->
  <g transform="translate(46.875, 748)">
    <circle cx="12" cy="12" r="12" fill="#F8F9FA"/>
    <text x="12" y="17" text-anchor="middle" font-family="SF Pro Display" font-size="12" fill="#6C757D">🏆</text>
    <text x="12" y="44" text-anchor="middle" font-family="SF Pro Display" font-size="10" fill="#6C757D">成就</text>
  </g>
  
  <!-- Tab 2 - 发现 (选中) -->
  <g transform="translate(140.625, 748)">
    <circle cx="12" cy="12" r="12" fill="#FF69B4"/>
    <text x="12" y="17" text-anchor="middle" font-family="SF Pro Display" font-size="12" fill="#FFFFFF">🔍</text>
    <text x="12" y="44" text-anchor="middle" font-family="SF Pro Display" font-size="10" font-weight="600" fill="#FF69B4">发现</text>
  </g>
  
  <!-- Tab 3 - 统计 -->
  <g transform="translate(234.375, 748)">
    <circle cx="12" cy="12" r="12" fill="#F8F9FA"/>
    <text x="12" y="17" text-anchor="middle" font-family="SF Pro Display" font-size="12" fill="#6C757D">📊</text>
    <text x="12" y="44" text-anchor="middle" font-family="SF Pro Display" font-size="10" fill="#6C757D">统计</text>
  </g>
  
  <!-- Tab 4 - 全部 -->
  <g transform="translate(328.125, 748)">
    <circle cx="12" cy="12" r="12" fill="#F8F9FA"/>
    <text x="12" y="17" text-anchor="middle" font-family="SF Pro Display" font-size="12" fill="#6C757D">🎯</text>
    <text x="12" y="44" text-anchor="middle" font-family="SF Pro Display" font-size="10" fill="#6C757D">全部</text>
  </g>
  
  <!-- 渐变定义 -->
  <defs>
    <linearGradient id="gradient1" x1="0%" y1="0%" x2="100%" y2="100%">
      <stop offset="0%" style="stop-color:#FF69B4"/>
      <stop offset="100%" style="stop-color:#FF1493"/>
    </linearGradient>
    <linearGradient id="gradient2" x1="0%" y1="0%" x2="100%" y2="100%">
      <stop offset="0%" style="stop-color:#FF69B4"/>
      <stop offset="100%" style="stop-color:#FF1493"/>
    </linearGradient>
    <linearGradient id="imageGradient" x1="0%" y1="0%" x2="100%" y2="100%">
      <stop offset="0%" style="stop-color:#FFE4E6"/>
      <stop offset="100%" style="stop-color:#FFF0F5"/>
    </linearGradient>
  </defs>
</svg> 